<svg viewBox="0 0 68.854 68.854" xmlns="http://www.w3.org/2000/svg">
    <g transform="translate(-106.521 -94.157)">
        <rect width="2.122" height="19.1"
              transform="translate(132.021 121.159) rotate(-45.01)" fill="#5a6271"/>
        <rect width="2.122" height="19.1"
              transform="translate(128.269 124.911) rotate(-45.01)" fill="#5a6271"/>
        <rect width="2.122" height="19.1"
              transform="matrix(0.707, -0.707, 0.707, 0.707, 135.775, 117.405)" fill="#5a6271"/>
        <rect width="2.122" height="19.1"
              transform="translate(113.381 139.799) rotate(-45.01)" fill="#a9afbb"/>
        <rect width="2.122" height="19.101"
              transform="matrix(0.707, -0.707, 0.707, 0.707, 109.631, 143.548)" fill="#a9afbb"/>
        <rect width="2.123" height="19.1"
              transform="matrix(0.707, -0.707, 0.707, 0.707, 150.663, 102.516)" fill="#a9afbb"/>
        <rect width="2.122" height="19.101"
              transform="translate(154.412 98.767) rotate(-45.01)" fill="#a9afbb"/>
        <rect width="2.123" height="7.538"
              transform="matrix(0.707, -0.707, 0.707, 0.707, 117.806, 151.726)" fill="#5a6271"/>
        <rect width="2.122" height="7.537"
              transform="matrix(0.707, -0.707, 0.707, 0.707, 121.558, 147.974)" fill="#5a6271"/>
        <rect width="2.122" height="7.538"
              transform="translate(136.446 133.085) rotate(-45)" fill="#a9afbb"/>
        <rect width="2.122" height="7.538"
              transform="matrix(0.707, -0.707, 0.707, 0.707, 140.198, 129.334)" fill="#a9afbb"/>
        <rect width="2.122" height="7.537"
              transform="matrix(0.707, -0.707, 0.707, 0.707, 143.95, 125.582)" fill="#a9afbb"/>
        <rect width="2.123" height="7.537"
              transform="translate(158.838 110.694) rotate(-44.995)" fill="#5a6271"/>
        <rect width="2.122" height="7.537"
              transform="matrix(0.707, -0.707, 0.707, 0.707, 162.59, 106.942)" fill="#5a6271"/>
        <path d="M150.864,138.5c-7.073,7.073-15.039,6.136-22.068,5.309-6.492-.764-11.62-1.367-16.29,3.3a3.506,3.506,0,1,1-4.958-4.958c7.072-7.072,15.039-6.135,22.068-5.308,6.492.763,11.62,1.367,16.291-3.3s4.067-9.8,3.3-16.291c-.828-7.029-1.764-15,5.308-22.068a3.506,3.506,0,0,1,4.958,4.958c-4.67,4.67-4.067,9.8-3.3,16.291C157,123.46,157.936,131.427,150.864,138.5Z"
              fill="#0C94B7"/>
        <path d="M108.54,143.145c7.072-7.073,15.038-6.136,22.067-5.309,6.493.764,11.621,1.367,16.291-3.3s4.066-9.8,3.3-16.291c-.827-7.028-1.765-14.995,5.308-22.068a3.506,3.506,0,0,1,4.412-.445,3.464,3.464,0,0,0-.445-.546,3.507,3.507,0,0,0-4.958,0c-7.072,7.072-6.136,15.039-5.308,22.068.764,6.492,1.366,11.621-3.3,16.291s-9.8,4.066-16.291,3.3c-7.029-.827-15-1.764-22.068,5.308a3.507,3.507,0,0,0,.546,5.4A3.5,3.5,0,0,1,108.54,143.145Z"
              fill="#0C94B7" style="mix-blend-mode: screen;isolation: isolate"/>
        <path d="M158.483,99.149c-4.669,4.67-4.066,9.8-3.3,16.291.827,7.028,1.764,14.995-5.309,22.068s-15.039,6.135-22.068,5.308c-6.493-.763-11.62-1.367-16.29,3.3a3.5,3.5,0,0,1-4.411.446,3.465,3.465,0,0,0,.445.546,3.506,3.506,0,0,0,4.958,0c4.67-4.67,9.8-4.067,16.29-3.3,7.029.827,14.995,1.764,22.068-5.309s6.136-15.039,5.309-22.067c-.764-6.493-1.367-11.621,3.3-16.291a3.506,3.506,0,0,0,0-4.958,3.575,3.575,0,0,0-.546-.446A3.506,3.506,0,0,1,158.483,99.149Z"
              fill="#0C94B7" style="mix-blend-mode: multiply;isolation: isolate"/>
        <path d="M174.349,115.014c-7.073,7.072-15.038,6.136-22.068,5.309-6.493-.764-11.621-1.367-16.29,3.3s-4.068,9.8-3.3,16.291c.827,7.028,1.763,14.995-5.309,22.067a3.506,3.506,0,1,1-4.958-4.958c4.67-4.669,4.067-9.8,3.3-16.29-.826-7.028-1.764-14.995,5.308-22.068s15.04-6.136,22.069-5.309c6.492.764,11.62,1.368,16.291-3.3a3.505,3.505,0,1,1,4.957,4.957Z"
              fill="#EF3F3E"/>
        <path d="M123.413,158.018c4.669-4.67,4.067-9.8,3.3-16.291-.827-7.028-1.764-15,5.308-22.067s15.04-6.136,22.069-5.309c6.491.764,11.619,1.367,16.29-3.3a3.507,3.507,0,0,1,4.412-.446,3.624,3.624,0,0,0-.446-.546,3.506,3.506,0,0,0-4.957,0c-4.671,4.67-9.8,4.066-16.291,3.3-7.029-.827-15-1.764-22.069,5.309s-6.134,15.04-5.308,22.068c.764,6.493,1.367,11.621-3.3,16.29a3.5,3.5,0,0,0,.547,5.4A3.5,3.5,0,0,1,123.413,158.018Z"
              fill="#EF3F3E" opacity="0.5" style="mix-blend-mode: screen;isolation: isolate"/>
        <path d="M173.358,114.023c-7.074,7.072-15.04,6.135-22.068,5.308-6.492-.764-11.621-1.367-16.291,3.3s-4.066,9.8-3.3,16.291c.827,7.029,1.764,14.995-5.308,22.068a3.508,3.508,0,0,1-4.412.446,3.505,3.505,0,0,0,5.4.545c7.072-7.072,6.136-15.039,5.309-22.067-.765-6.493-1.367-11.621,3.3-16.291s9.8-4.067,16.29-3.3c7.03.827,14.995,1.763,22.068-5.309a3.507,3.507,0,0,0-.546-5.4A3.509,3.509,0,0,1,173.358,114.023Z"
              fill="#EF3F3E" opacity="0.5" style="mix-blend-mode: multiply;isolation: isolate"/>
    </g>
</svg>