<svg width="18" height="12" viewBox="0 0 18 12" fill="none" xmlns="http://www.w3.org/2000/svg">
    <path d="M11.8 10.2C12.297 10.2 12.7 10.6029 12.7 11.1C12.7 11.5971 12.297 12 11.8 12H6.39995C5.90289 12 5.49995 11.5971 5.49995 11.1C5.49995 10.6029 5.90289 10.2 6.39995 10.2H11.8ZM14.2 5.1C14.697 5.1 15.1 5.50294 15.1 6C15.1 6.49706 14.697 6.9 14.2 6.9H3.99995C3.5029 6.9 3.09995 6.49706 3.09995 6C3.09995 5.50294 3.5029 5.1 3.99995 5.1H14.2ZM16.6 0C17.097 0 17.5 0.402944 17.5 0.9C17.5 1.39706 17.097 1.8 16.6 1.8H1.59995C1.10289 1.8 0.699951 1.39706 0.699951 0.9C0.699951 0.402944 1.10289 0 1.59995 0H16.6Z"
          fill="#3C86F4"/>
    <path d="M11.8 10.2C12.297 10.2 12.7 10.6029 12.7 11.1C12.7 11.5971 12.297 12 11.8 12H6.39995C5.90289 12 5.49995 11.5971 5.49995 11.1C5.49995 10.6029 5.90289 10.2 6.39995 10.2H11.8ZM14.2 5.1C14.697 5.1 15.1 5.50294 15.1 6C15.1 6.49706 14.697 6.9 14.2 6.9H3.99995C3.5029 6.9 3.09995 6.49706 3.09995 6C3.09995 5.50294 3.5029 5.1 3.99995 5.1H14.2ZM16.6 0C17.097 0 17.5 0.402944 17.5 0.9C17.5 1.39706 17.097 1.8 16.6 1.8H1.59995C1.10289 1.8 0.699951 1.39706 0.699951 0.9C0.699951 0.402944 1.10289 0 1.59995 0H16.6Z"
          fill="#3C86F4"/>
</svg>
