<svg width="17" height="13" viewBox="0 0 17 13" fill="none" xmlns="http://www.w3.org/2000/svg">
    <path d="M5.86722 1.84616C5.37016 1.84616 4.96722 1.44321 4.96722 0.946159C4.96722 0.449102 5.37016 0.0461585 5.86722 0.0461585L11.2672 0.0461585C11.7643 0.0461585 12.1672 0.449102 12.1672 0.946159C12.1672 1.44321 11.7643 1.84616 11.2672 1.84616L5.86722 1.84616ZM3.46722 6.94616C2.97016 6.94616 2.56722 6.54322 2.56722 6.04616C2.56722 5.5491 2.97016 5.14616 3.46722 5.14616L13.6672 5.14616C14.1643 5.14616 14.5672 5.5491 14.5672 6.04616C14.5672 6.54322 14.1643 6.94616 13.6672 6.94616L3.46722 6.94616ZM1.06722 12.0462C0.570163 12.0462 0.167219 11.6432 0.167219 11.1462C0.167219 10.6491 0.570163 10.2462 1.06722 10.2462L16.0672 10.2462C16.5643 10.2462 16.9672 10.6491 16.9672 11.1462C16.9672 11.6432 16.5643 12.0462 16.0672 12.0462L1.06722 12.0462Z" fill="#3C86F4"/>
    <path d="M5.86722 1.84616C5.37016 1.84616 4.96722 1.44321 4.96722 0.946159C4.96722 0.449102 5.37016 0.0461585 5.86722 0.0461585L11.2672 0.0461585C11.7643 0.0461585 12.1672 0.449102 12.1672 0.946159C12.1672 1.44321 11.7643 1.84616 11.2672 1.84616L5.86722 1.84616ZM3.46722 6.94616C2.97016 6.94616 2.56722 6.54322 2.56722 6.04616C2.56722 5.5491 2.97016 5.14616 3.46722 5.14616L13.6672 5.14616C14.1643 5.14616 14.5672 5.5491 14.5672 6.04616C14.5672 6.54322 14.1643 6.94616 13.6672 6.94616L3.46722 6.94616ZM1.06722 12.0462C0.570163 12.0462 0.167219 11.6432 0.167219 11.1462C0.167219 10.6491 0.570163 10.2462 1.06722 10.2462L16.0672 10.2462C16.5643 10.2462 16.9672 10.6491 16.9672 11.1462C16.9672 11.6432 16.5643 12.0462 16.0672 12.0462L1.06722 12.0462Z" fill="#3C86F4"/>
</svg>
